# xmcd
#
# Track frame offsets:
#	150
#	12450
#	22745
#	34223
#	51238
#	61434
#	71764
#	79231
#	94143
#	104856
#	115843
#	129788
#	145108
#	156234
#	168982
#	183970
#	194754
#	207767
#	217488
#	228200
#	243002
#
# Disc length: 3363 seconds
#
# Revision: 1940382705
# Processed by: cddbd v1.5.2PL0 Copyright (c) Steve Scherf et al.
# Submitted via: EZCDAudioConverter 8.5.0.1
#
DISCID=2e0d2115
DTITLE=Various Artist - American Song-Poem Christmas
DYEAR=2004
DGENRE=Christmas/Holiday
TTITLE0=Heather Noel - Santa Came On A Nuclear Missile
TTITLE1=Bobbie Boyle with The Singers - Santa Claus Goes Modern
TTITLE2=Norris The Troubador, Seaboard Coastliners - Christmas Time Philosophy
TTITLE3=Dick Kent with The Lancelots - A New Year's Dawning
TTITLE4=The Sisterhood - The Rocking Disco Santa Claus
TTITLE5=Stan Beard and The Swinging Strings - Snowbows
TTITLE6=Bobbie Boyle with The MSR Singers - Randy, The Lil' Elf
TTITLE7=Rodd Rogers - Maury, The Christmas Mouse
TTITLE8=Randall Reed with The Forerunners - The Peppermint Stick Man
TTITLE9=The Sisterhood - Christmas Treat, Peppermint
TTITLE10=Kay Brown - Daddy, Is Santa Really Six Foot Four?
TTITLE11=Rodd and The Librettos - How Do They Spend Christmas In Heaven
TTITLE12=The Sisterhood - Ole Year Christmas
TTITLE13=Gene Marshall - Evelyn Christmas
TTITLE14=Rodd and Nita - Jolly, Jolly Santa Claus
TTITLE15=Sonny Cash - Merry Christmas Polka
TTITLE16=Rodd and Judy - Santa Fix My Toys For Christmas
TTITLE17=The Sisterhood - Baby, It's A Cold Night In December
TTITLE18=Rodd Rogers and The Librettos - Santa Claus Goes Modern
TTITLE19=Cara Stewart with Lee Hudson Orchestra - The New Year Song
TTITLE20=Teri Summers and The Librettos - Season's Greetings
EXTD=
EXTT0=
EXTT1=
EXTT2=
EXTT3=
EXTT4=
EXTT5=
EXTT6=
EXTT7=
EXTT8=
EXTT9=
EXTT10=
EXTT11=
EXTT12=
EXTT13=
EXTT14=
EXTT15=
EXTT16=
EXTT17=
EXTT18=
EXTT19=
EXTT20=
PLAYORDER=
